<?xml version="1.0" standalone="no"?>
<!DOCTYPE svg PUBLIC "-//W3C//DTD SVG 20010904//EN"
 "http://www.w3.org/TR/2001/REC-SVG-20010904/DTD/svg10.dtd">
<svg version="1.0" xmlns="http://www.w3.org/2000/svg"
 width="512.000000pt" height="512.000000pt" viewBox="0 0 512.000000 512.000000"
 preserveAspectRatio="xMidYMid meet">
<metadata>
Created by potrace 1.14, written by Peter Selinger 2001-2017
</metadata>
<g transform="translate(0.000000,512.000000) scale(0.100000,-0.100000)"
fill="#000000" stroke="none">
<path d="M2285 4968 c-283 -37 -397 -61 -565 -117 -320 -107 -550 -267 -765
-531 -155 -191 -271 -458 -331 -765 -23 -116 -28 -166 -28 -295 0 -185 8 -222
119 -539 41 -117 75 -219 75 -226 0 -7 -9 -24 -20 -37 -67 -85 -130 -275 -130
-391 0 -243 182 -529 465 -729 44 -31 92 -69 107 -85 14 -15 56 -90 93 -165
106 -218 205 -360 364 -518 151 -150 228 -201 376 -251 46 -15 105 -41 132
-58 239 -146 453 -158 688 -39 44 22 143 67 220 99 175 74 245 121 376 256
155 160 255 307 385 565 54 107 55 108 150 179 259 191 423 409 470 623 21 98
16 186 -16 306 -14 52 -61 148 -101 206 l-28 42 40 103 c58 147 105 288 136
404 52 201 24 513 -74 820 -148 461 -468 808 -909 984 -186 74 -395 125 -631
155 -134 18 -479 20 -598 4z m-216 -102 c-2 -2 -47 -18 -99 -36 -135 -46 -305
-129 -292 -142 7 -7 34 -1 89 22 107 45 197 75 295 99 116 28 126 29 287 46
180 19 282 19 446 0 225 -27 381 -71 587 -166 130 -61 152 -68 146 -46 -7 20
-294 160 -395 192 -51 17 -88 31 -83 33 13 5 180 -33 276 -62 427 -128 785
-441 974 -849 88 -191 150 -466 150 -667 0 -194 -56 -454 -136 -628 -28 -62
-34 -70 -29 -39 7 43 -14 52 -33 15 -10 -20 -11 -17 -6 20 4 33 3 42 -9 42 -8
0 -20 -13 -27 -30 -18 -43 -29 -37 -17 10 14 50 2 63 -27 28 -29 -37 -37 -35
-25 4 11 41 12 38 -6 38 -8 0 -20 -9 -27 -20 -18 -28 -28 -25 -28 10 0 32 -14
40 -24 15 -7 -19 -26 -20 -26 -1 0 20 -19 31 -32 18 -6 -6 -21 -7 -37 -2 -132
41 -342 58 -471 38 -197 -30 -326 -78 -465 -171 -211 -142 -335 -309 -372
-501 -14 -77 -15 -99 -4 -180 20 -138 46 -182 177 -294 33 -29 40 -31 50 -18
9 13 15 10 44 -19 37 -38 61 -34 39 6 -12 23 -11 23 24 -4 35 -27 62 -22 37 8
-8 10 -8 15 0 20 6 4 36 -17 68 -47 76 -71 147 -122 218 -155 53 -25 70 -28
169 -28 107 0 112 1 185 38 150 75 321 241 407 394 20 37 52 111 70 163 31 92
32 93 33 50 0 -54 9 -90 21 -90 5 0 9 32 9 72 l0 71 26 -23 c51 -48 49 20 -3
123 -45 90 -174 195 -286 234 -71 24 -255 25 -310 0 l-38 -16 21 28 c21 31 26
51 11 51 -18 0 -113 -94 -156 -155 -25 -34 -70 -116 -100 -181 -90 -193 -108
-225 -159 -293 -102 -139 -148 -171 -246 -171 -130 0 -209 69 -239 208 -43
202 54 431 249 589 128 103 351 199 522 224 174 25 383 -3 520 -71 105 -52
199 -127 176 -141 -8 -5 8 -27 50 -66 81 -76 126 -153 151 -263 37 -155 22
-265 -54 -407 -154 -291 -483 -534 -809 -599 -94 -18 -112 -34 -41 -34 48 0
50 -2 35 -30 -16 -31 8 -35 31 -6 24 31 45 35 29 7 -21 -41 1 -43 43 -3 19 17
28 21 24 10 -10 -27 4 -28 38 -2 24 18 34 21 38 12 3 -9 15 -4 37 17 32 29 31
27 -24 -81 -114 -225 -269 -428 -416 -547 -77 -62 -197 -133 -259 -152 -22 -7
-23 -5 -16 24 4 17 3 31 0 31 -4 0 -38 -29 -75 -64 -150 -141 -369 -198 -560
-145 -105 29 -180 72 -265 151 -69 64 -101 76 -75 27 7 -11 9 -23 6 -26 -9
-10 -178 76 -236 120 -120 90 -242 226 -343 383 -60 92 -161 283 -154 290 3 3
12 -3 19 -15 14 -23 38 -28 38 -9 0 6 10 2 23 -10 28 -26 47 -28 47 -5 0 13 8
9 33 -15 38 -37 52 -40 44 -11 -5 18 2 15 32 -15 44 -43 62 -34 31 16 -11 18
-20 36 -20 41 0 4 20 7 45 7 44 0 66 19 25 21 -11 1 -23 2 -27 3 -5 1 -34 8
-66 15 -248 54 -499 213 -664 421 -99 124 -143 200 -172 294 -57 185 6 419
146 544 35 31 61 62 59 69 -8 20 97 107 175 146 100 49 174 67 300 74 142 8
275 -10 405 -52 155 -51 293 -135 407 -250 139 -139 204 -317 178 -490 -23
-156 -102 -235 -233 -235 -89 0 -121 15 -184 83 -78 85 -138 179 -190 300 -61
138 -107 220 -165 294 -52 64 -113 123 -129 123 -15 0 -12 -21 7 -42 23 -26
14 -29 -42 -13 -148 45 -363 -14 -486 -135 -58 -57 -91 -111 -114 -185 -16
-56 -7 -72 28 -45 l27 21 0 -75 c0 -42 4 -76 9 -76 6 0 13 33 17 72 8 79 8 78
43 -37 39 -130 167 -319 278 -412 74 -62 189 -133 249 -154 81 -28 197 -26
276 6 61 24 181 108 259 180 21 19 41 35 44 35 4 0 4 -13 0 -30 -8 -37 4 -38
35 -5 28 30 45 33 30 6 -13 -26 -13 -31 3 -31 7 0 26 13 42 30 24 25 30 27 39
15 9 -12 23 -5 79 43 80 68 112 113 131 184 27 104 29 167 8 270 -29 140 -83
238 -192 348 -94 96 -167 149 -286 208 -171 85 -316 117 -524 116 -103 0 -144
-5 -229 -28 -93 -24 -105 -26 -113 -11 -13 21 -28 9 -28 -22 0 -25 -1 -25 -18
-10 -25 23 -32 21 -32 -8 0 -30 -11 -32 -28 -5 -7 11 -19 20 -28 20 -12 0 -14
-8 -9 -37 l6 -38 -25 30 c-31 37 -43 27 -29 -25 13 -49 4 -51 -21 -5 -27 49
-39 44 -32 -12 6 -47 6 -48 -9 -20 -24 41 -38 34 -30 -15 4 -24 5 -41 2 -38
-13 13 -118 318 -143 415 -24 94 -28 129 -28 245 0 267 76 567 206 810 216
405 569 664 1063 780 127 30 141 32 134 26z m-735 -2540 c46 -19 76 -61 76
-105 0 -29 -8 -44 -35 -71 -76 -74 -226 -38 -249 60 -8 32 23 84 66 110 38 23
95 26 142 6z m2423 -3 c38 -18 73 -65 73 -98 0 -59 -71 -115 -146 -115 -70 0
-144 58 -144 113 0 86 125 144 217 100z m-2247 -157 c-7 -9 -16 -16 -20 -16
-15 0 -20 32 -9 47 11 12 14 12 27 -1 13 -12 13 -18 2 -30z m2426 5 c-9 -14
-33 -14 -41 -1 -4 6 -1 18 6 26 11 13 14 13 27 0 8 -8 11 -19 8 -25z"/>
<path d="M4110 4016 c0 -2 14 -34 31 -72 47 -104 85 -222 109 -341 19 -93 22
-132 19 -305 -2 -109 -1 -198 2 -198 10 0 28 71 40 156 25 176 -9 422 -81 580
-37 82 -98 184 -111 184 -5 0 -9 -2 -9 -4z"/>
<path d="M933 3923 c-96 -172 -139 -357 -129 -558 6 -126 25 -233 41 -225 4 3
7 28 4 55 -20 234 26 516 117 724 26 59 29 71 14 71 -5 0 -26 -30 -47 -67z"/>
<path d="M2918 2403 c-125 -129 -198 -327 -169 -456 15 -67 61 -139 110 -173
78 -52 190 -15 278 94 62 76 55 94 -15 33 -58 -51 -131 -90 -167 -91 -68 0
-135 101 -135 206 0 95 73 300 141 396 41 56 16 51 -43 -9z"/>
<path d="M2158 2435 c-4 -4 1 -20 11 -34 66 -94 121 -249 128 -361 5 -79 3
-89 -24 -140 -19 -37 -41 -61 -64 -74 -55 -30 -94 -17 -187 64 -44 38 -82 66
-85 63 -10 -9 53 -100 94 -138 49 -44 95 -65 144 -65 47 0 83 20 128 69 53 59
69 104 70 191 1 85 -18 151 -70 252 -37 71 -133 185 -145 173z"/>
<path d="M1070 1752 c0 -21 84 -127 160 -202 167 -164 347 -236 501 -200 59
14 147 57 194 95 52 42 18 40 -72 -6 -87 -44 -89 -44 -193 -44 -103 0 -106 1
-190 43 -102 50 -223 144 -318 247 -65 71 -82 85 -82 67z"/>
<path d="M3940 1660 c-197 -202 -380 -297 -521 -270 -28 5 -89 28 -137 50 -96
45 -126 41 -57 -9 115 -83 256 -112 366 -76 152 51 349 214 454 378 36 56 -11
24 -105 -73z"/>
<path d="M2220 1165 c-74 -60 -90 -81 -90 -122 0 -46 34 -109 68 -127 72 -37
101 -25 36 15 -44 27 -65 71 -53 111 4 16 28 52 53 79 25 28 46 60 46 70 0 10
-1 19 -2 18 -2 0 -28 -20 -58 -44z"/>
<path d="M2830 1204 c0 -15 42 -73 64 -87 58 -39 58 -129 -1 -184 -24 -23 -29
-33 -18 -33 56 0 115 75 115 146 0 38 -19 61 -108 132 -41 32 -52 38 -52 26z"/>
<path d="M2228 1049 c-22 -13 -23 -52 -2 -70 19 -16 156 -70 162 -64 9 9 -9
55 -35 86 -15 17 -42 38 -60 45 -38 16 -42 17 -65 3z"/>
<path d="M2783 1020 c-33 -32 -60 -86 -49 -98 9 -9 136 35 159 55 9 9 17 29
17 45 0 27 -2 28 -48 28 -40 0 -53 -5 -79 -30z"/>
<path d="M2200 695 c-17 -20 -6 -32 78 -89 93 -63 164 -80 312 -73 70 3 133
11 160 21 55 20 183 112 178 128 -7 20 -40 35 -45 20 -10 -27 -54 -70 -87 -86
-55 -26 -227 -39 -342 -26 -111 12 -167 37 -199 87 -22 36 -36 40 -55 18z"/>
<path d="M2370 483 c0 -16 74 -81 117 -102 57 -28 98 -26 158 8 49 28 113 87
104 95 -2 2 -33 -2 -69 -10 -96 -20 -205 -16 -292 12 -10 3 -18 1 -18 -3z"/>
</g>
</svg>
